IKResults
version=1
nRows=11
nColumns=50
inDegrees=yes

Units are S.I. units (second, meters, Newtons, ...)
If the header above contains a line with 'inDegrees', this indicates whether rotational values are in degrees (yes) or radians (no).

endheader
time	pelvis_tilt	pelvis_list	pelvis_rotation	pelvis_tx	pelvis_ty	pelvis_tz	hip_flexion_r	hip_adduction_r	hip_rotation_r	knee_angle_r	knee_angle_r_beta	ankle_angle_r	subtalar_angle_r	mtp_angle_r	hip_flexion_l	hip_adduction_l	hip_rotation_l	knee_angle_l	knee_angle_l_beta	socket_flexion	socket_adduction	socket_rotation	socket_tx	socket_ty	socket_tz	pros_ankle_rx	pros_ankle_ry	pros_ankle_rz	pros_ankle_tx	pros_ankle_ty	pros_ankle_tz	foot_flex	lumbar_extension	lumbar_bending	lumbar_rotation	arm_flex_r	arm_add_r	arm_rot_r	elbow_flex_r	pro_sup_r	wrist_flex_r	wrist_dev_r	arm_flex_l	arm_add_l	arm_rot_l	elbow_flex_l	pro_sup_l	wrist_flex_l	wrist_dev_l
      0.30105000	      4.72766097	     -2.90184444	     -4.07174650	     -0.38269740	      1.04872910	      0.35216388	      4.85262025	     -0.71937484	     -0.34099871	     63.87499648	      1.11482900	     -1.32702115	      0.00000000	      0.00000000	      0.83057671	     -1.40456564	     -8.07792048	     20.94950957	      0.36563792	      4.15301109	      1.62919021	      0.23758056	      0.00000000	      0.00969507	      0.00000000	      0.00000000	      0.00000000	      0.00000000	      0.00000000	      0.00000000	      0.00000000	     16.24990906	    -23.87910284	     -4.70046581	      4.27598390	      0.00000000	     -5.92662949	      0.00000000	     78.10762670	     83.47224037	      0.00000000	      0.00000000	      0.00000000	     -5.92662949	      0.00000000	     78.10762670	     83.47224037	      0.00000000	      0.00000000
      0.30523000	      4.86198401	     -3.05642933	     -3.96365142	     -0.37725423	      1.04955159	      0.35180241	      5.28017467	     -0.51638744	     -0.43436261	     63.89559299	      1.11518848	     -0.36092948	      0.00000000	      0.00000000	      0.19152897	     -1.51666155	     -8.12325740	     20.75281350	      0.36220492	      4.26274325	      1.64341386	      0.08508792	      0.00000000	      0.00955990	      0.00000000	      0.00000000	      0.00000000	      0.00000000	      0.00000000	      0.00000000	      0.00000000	     16.32529808	    -23.95798764	     -4.45241113	      4.15090142	      0.00000000	     -5.93236256	      0.00000000	     78.10380240	     83.47784076	      0.00000000	      0.00000000	      0.00000000	     -5.93236256	      0.00000000	     78.10380240	     83.47784076	      0.00000000	      0.00000000
      0.30941000	      5.27048420	     -3.23358194	     -3.89595402	     -0.37191806	      1.05072557	      0.35152623	      5.37909740	     -0.29956295	     -0.49381590	     63.80813447	      1.11366204	      0.52379537	      0.00000000	      0.00000000	     -0.80114016	     -1.64040348	     -8.35094322	     19.70423962	      0.34390386	      3.31977861	      1.54682103	     -0.37618880	      0.00000000	      0.00961127	      0.00000000	      0.00000000	      0.00000000	      0.00000000	      0.00000000	      0.00000000	      0.00000000	     16.70055538	    -24.36460881	     -4.29257556	      4.07602299	      0.00000000	     -6.01635388	      0.00000000	     78.04798657	     83.55977169	      0.00000000	      0.00000000	      0.00000000	     -6.01635388	      0.00000000	     78.04798657	     83.55977169	      0.00000000	      0.00000000
      0.31359000	      5.26914901	     -3.37563462	     -3.79501675	     -0.36642568	      1.05138856	      0.35110898	      5.91983750	     -0.12592895	     -0.62219424	     63.68682797	      1.11154484	      1.42030482	      0.00000000	      0.00000000	     -1.27230029	     -1.73945710	     -8.35795518	     19.55137447	      0.34123586	      3.45520708	      1.55977847	     -0.44457692	      0.00000000	      0.00937843	      0.00000000	      0.00000000	      0.00000000	      0.00000000	      0.00000000	      0.00000000	      0.00000000	     16.75781983	    -24.32115763	     -3.98616938	      3.96460216	      0.00000000	     -6.02158869	      0.00000000	     78.04452726	     83.56486714	      0.00000000	      0.00000000	      0.00000000	     -6.02158869	      0.00000000	     78.04452726	     83.56486714	      0.00000000	      0.00000000
      0.31777000	      5.32558709	     -3.54543577	     -3.68524105	     -0.36111573	      1.05206731	      0.35074385	      6.42011423	      0.09130903	     -0.75012988	     63.55409482	      1.10922821	      2.28360549	      0.00000000	      0.00000000	     -1.78077112	     -1.88685252	     -8.36284074	     19.41699784	      0.33889054	      3.56693529	      1.55922030	     -0.55752319	      0.00000000	      0.00918194	      0.00000000	      0.00000000	      0.00000000	      0.00000000	      0.00000000	      0.00000000	      0.00000000	     16.83814317	    -24.32504834	     -3.71850454	      3.83949588	      0.00000000	     -6.02687362	      0.00000000	     78.04103667	     83.57001035	      0.00000000	      0.00000000	      0.00000000	     -6.02687362	      0.00000000	     78.04103667	     83.57001035	      0.00000000	      0.00000000
      0.32195000	      5.38618124	     -3.73004760	     -3.58497629	     -0.35582593	      1.05275323	      0.35037118	      6.89427578	      0.32207012	     -0.87695033	     63.34541790	      1.10558611	      3.09317080	      0.00000000	      0.00000000	     -2.29084684	     -2.05086334	     -8.37595293	     19.28049544	      0.33650813	      3.66730011	      1.56036176	     -0.67343200	      0.00000000	      0.00899247	      0.00000000	      0.00000000	      0.00000000	      0.00000000	      0.00000000	      0.00000000	      0.00000000	     16.91399965	    -24.34440763	     -3.43317249	      3.71878479	      0.00000000	     -6.03233144	      0.00000000	     78.03743399	     83.57532065	      0.00000000	      0.00000000	      0.00000000	     -6.03233144	      0.00000000	     78.03743399	     83.57532065	      0.00000000	      0.00000000
      0.32613000	      5.46101215	     -3.91541238	     -3.47920755	     -0.35060025	      1.05343045	      0.35003209	      7.35501890	      0.56308807	     -1.00765065	     63.08435081	      1.10102963	      3.83724935	      0.00000000	      0.00000000	     -2.80564280	     -2.22549540	     -8.41102735	     19.13954505	      0.33404808	      3.74536059	      1.53724461	     -0.79844074	      0.00000000	      0.00873430	      0.00000000	      0.00000000	      0.00000000	      0.00000000	      0.00000000	      0.00000000	      0.00000000	     17.02015873	    -24.39790370	     -3.15320104	      3.58949393	      0.00000000	     -6.03908814	      0.00000000	     78.03297661	     83.58189323	      0.00000000	      0.00000000	      0.00000000	     -6.03908814	      0.00000000	     78.03297661	     83.58189323	      0.00000000	      0.00000000
      0.33031000	      5.52641763	     -4.09743068	     -3.37046147	     -0.34539299	      1.05409190	      0.34967261	      7.80799095	      0.79360067	     -1.15261461	     62.75906743	      1.09535236	      4.53739073	      0.00000000	      0.00000000	     -3.30751237	     -2.38433202	     -8.44094833	     18.99458857	      0.33151811	      3.82739971	      1.55142006	     -0.91678433	      0.00000000	      0.00846999	      0.00000000	      0.00000000	      0.00000000	      0.00000000	      0.00000000	      0.00000000	      0.00000000	     17.10286812	    -24.42953246	     -2.87209728	      3.48458167	      0.00000000	     -6.04519137	      0.00000000	     78.02895302	     83.58782862	      0.00000000	      0.00000000	      0.00000000	     -6.04519137	      0.00000000	     78.02895302	     83.58782862	      0.00000000	      0.00000000
      0.33449000	      5.59076471	     -4.28809589	     -3.27034136	     -0.34022678	      1.05471962	      0.34932359	      8.24884718	      1.02943045	     -1.29940033	     62.37706385	      1.08868514	      5.20131072	      0.00000000	      0.00000000	     -3.80051889	     -2.55858060	     -8.47569486	     18.85590323	      0.32909759	      3.89734371	      1.55763746	     -1.03905985	      0.00000000	      0.00821264	      0.00000000	      0.00000000	      0.00000000	      0.00000000	      0.00000000	      0.00000000	      0.00000000	     17.18750436	    -24.47274745	     -2.58243661	      3.38345791	      0.00000000	     -6.05124118	      0.00000000	     78.02496716	     83.59371065	      0.00000000	      0.00000000	      0.00000000	     -6.05124118	      0.00000000	     78.02496716	     83.59371065	      0.00000000	      0.00000000
      0.33868000	      5.60953840	     -4.34175368	     -3.24051947	     -0.33528519	      1.05520578	      0.34912711	      8.85958316	      1.07731503	     -1.43243082	     62.07789250	      1.08346362	      5.43590277	      0.00000000	      0.00000000	     -4.18860920	     -2.57363647	     -8.49935649	     18.80203558	      0.32815743	      3.99553915	      1.58683683	     -1.04618272	      0.00000000	      0.00768402	      0.00000000	      0.00000000	      0.00000000	      0.00000000	      0.00000000	      0.00000000	      0.00000000	     17.35018849	    -24.59266622	     -2.53500520	      3.35843884	      0.00000000	     -6.05226913	      0.00000000	     78.02429082	     83.59470950	      0.00000000	      0.00000000	      0.00000000	     -6.05226913	      0.00000000	     78.02429082	     83.59470950	      0.00000000	      0.00000000
      0.34286000	      5.67094018	     -4.62723792	     -3.07891405	     -0.32994097	      1.05585201	      0.34868644	      9.16504226	      1.44927142	     -1.60141447	     61.48478896	      1.07311201	      6.37342590	      0.00000000	      0.00000000	     -4.70777329	     -2.86421039	     -8.55736662	     18.62766398	      0.32511407	      4.07294826	      1.59180403	     -1.24816342	      0.00000000	      0.00760992	      0.00000000	      0.00000000	      0.00000000	      0.00000000	      0.00000000	      0.00000000	      0.00000000	     17.36566145	    -24.52280190	     -2.05681132	      3.20816973	      0.00000000	     -6.05887643	      0.00000000	     78.01994093	     83.60113174	      0.00000000	      0.00000000	      0.00000000	     -6.05887643	      0.00000000	     78.01994093	     83.60113174	      0.00000000	      0.00000000
